# xmcd CD database file
#
# Track frame offsets:
#	150
#	26483
#	59557
#	87371
#	114920
#	169668
#	203121
#	241292
#
# Disc length: 3743 seconds
#
# Revision: 0
# Processed by: cddbd v1.5.2PL0 Copyright (c) Steve Scherf et al.
# Submitted via: CDex 1.70beta2
#
DISCID=620e9d08
DTITLE=Ray d'Inverno/Lee Goodall Quartet - Future Positive
DYEAR=1998
DGENRE=Jazz
TTITLE0=Prof's delight
TTITLE1=L.A. Ag
TTITLE2=King B
TTITLE3=Bank holiday blues
TTITLE4=Toots in mind
TTITLE5=Lo-life
TTITLE6=Late blooms, long shadows
TTITLE7=Future positive
EXTD=YEAR: 1998
EXTT0=
EXTT1=
EXTT2=
EXTT3=
EXTT4=
EXTT5=
EXTT6=
EXTT7=
PLAYORDER=
